<svg width="24" height="24" fill="none" xmlns="http://www.w3.org/2000/svg"><path fill-rule="evenodd" clip-rule="evenodd" d="M11.707.415c-3.18 0-3.578.014-4.827.07C5.634.544 4.783.74 4.04 1.03c-.77.3-1.423.7-2.074 1.35a5.738 5.738 0 0 0-1.35 2.074C.325 5.199.127 6.05.07 7.296.013 8.544 0 8.943 0 12.123c0 3.18.013 3.578.07 4.827.057 1.246.255 2.097.545 2.841.299.77.7 1.423 1.35 2.074a5.74 5.74 0 0 0 2.074 1.35c.744.29 1.595.488 2.841.544 1.25.057 1.648.07 4.827.07 3.18 0 3.579-.013 4.827-.07 1.246-.056 2.097-.254 2.842-.544.77-.299 1.423-.7 2.074-1.35a5.738 5.738 0 0 0 1.35-2.074c.29-.744.487-1.595.544-2.841.057-1.25.07-1.648.07-4.827 0-3.18-.013-3.579-.07-4.827-.057-1.246-.255-2.097-.544-2.842-.3-.77-.7-1.423-1.35-2.074a5.739 5.739 0 0 0-2.074-1.35C18.631.74 17.78.543 16.534.486c-1.248-.057-1.647-.07-4.827-.07Zm0 2.11c3.126 0 3.497.012 4.731.068 1.142.052 1.761.243 2.174.403.546.212.936.466 1.346.876.41.41.664.8.876 1.346.16.412.35 1.032.403 2.174.056 1.234.068 1.605.068 4.73 0 3.127-.012 3.497-.068 4.731-.052 1.142-.243 1.762-.403 2.174a3.625 3.625 0 0 1-.876 1.346c-.41.41-.8.664-1.346.876-.413.16-1.032.351-2.174.403-1.234.056-1.604.069-4.73.069-3.127 0-3.497-.012-4.731-.069-1.142-.052-1.762-.243-2.174-.403a3.627 3.627 0 0 1-1.346-.876c-.41-.41-.664-.8-.876-1.346-.16-.412-.351-1.032-.403-2.174-.057-1.234-.069-1.604-.069-4.73 0-3.126.012-3.497.069-4.731.052-1.142.242-1.762.403-2.174.212-.547.466-.937.876-1.346.41-.41.8-.664 1.346-.876.412-.16 1.032-.351 2.174-.403 1.234-.056 1.604-.068 4.73-.068Zm-6.012 9.598a6.012 6.012 0 1 1 12.024 0 6.012 6.012 0 0 1-12.024 0Zm6.012 3.902a3.902 3.902 0 1 1 0-7.805 3.902 3.902 0 0 1 0 7.805Zm6.25-8.747a1.405 1.405 0 1 0 0-2.81 1.405 1.405 0 0 0 0 2.81Z" fill="#F5F5F6"/></svg>