<svg width="18" height="18" fill="none" xmlns="http://www.w3.org/2000/svg"><path fill-rule="evenodd" clip-rule="evenodd" d="M12.868 10.702c-.213-.107-1.257-.62-1.451-.691-.194-.07-.336-.106-.478.107-.141.211-.548.69-.671.831-.125.143-.248.16-.46.054-.213-.107-.897-.33-1.708-1.054-.63-.562-1.057-1.257-1.18-1.47-.124-.212-.014-.327.093-.433.095-.095.212-.248.318-.372.107-.124.142-.212.212-.355.072-.141.036-.265-.018-.371-.052-.106-.477-1.151-.654-1.576-.172-.414-.347-.358-.477-.365A9.19 9.19 0 0 0 5.987 5a.778.778 0 0 0-.566.266c-.195.212-.743.726-.743 1.77 0 1.045.76 2.054.867 2.196.106.142 1.496 2.286 3.625 3.205.508.219.903.35 1.21.447.509.162.972.139 1.338.084.407-.06 1.255-.514 1.432-1.01.177-.495.177-.92.124-1.009-.053-.088-.194-.141-.407-.247Zm-3.873 5.287h-.003a7.049 7.049 0 0 1-3.594-.984l-.258-.153-2.672.702.713-2.606-.168-.267a7.044 7.044 0 0 1-1.079-3.757 7.07 7.07 0 0 1 7.064-7.06 7.01 7.01 0 0 1 4.991 2.07 7.019 7.019 0 0 1 2.066 4.995c-.002 3.893-3.169 7.06-7.06 7.06ZM15.003 2.92A8.44 8.44 0 0 0 8.994.43C4.313.429.501 4.239.5 8.923c0 1.497.39 2.959 1.133 4.246L.428 17.572l4.503-1.182a8.486 8.486 0 0 0 4.06 1.034h.004c4.681 0 8.493-3.81 8.494-8.495a8.442 8.442 0 0 0-2.486-6.009Z" fill="#fff"/></svg>