<svg width="20" height="20" fill="none" xmlns="http://www.w3.org/2000/svg"><g clip-path="url(#a)"><path d="M8.456 11.467a11.317 11.317 0 0 0 4.11 2.66l2.095-1.666a.372.372 0 0 1 .422 0l3.89 2.506a1.112 1.112 0 0 1 .183 1.766l-1.823 1.8a2.222 2.222 0 0 1-2.016.595 19.495 19.495 0 0 1-9.528-5 18.773 18.773 0 0 1-5.15-9.35 2.1 2.1 0 0 1 .611-1.972L3.139.983a1.111 1.111 0 0 1 1.733.178L7.462 5a.35.35 0 0 1 0 .417l-1.706 2.05a10.972 10.972 0 0 0 2.7 4Z" fill="#333" fill-opacity=".7"/></g><defs><clipPath id="a"><path fill="#fff" d="M0 0h20v20H0z"/></clipPath></defs></svg>