<svg width="176" height="102" fill="none" xmlns="http://www.w3.org/2000/svg"><g clip-path="url(#a)"><path fill-rule="evenodd" clip-rule="evenodd" d="M88.22 7a91.897 91.897 0 0 0 22.45-2.8l.92-.23.69.64a35.074 35.074 0 0 1 10.4 18.07l.2.92-.66.7a91.564 91.564 0 0 0-22.35 38.8l-.26.93-.92.28a35.76 35.76 0 0 1-10.47 1.56 35.26 35.26 0 0 1-10.5-1.61l-.89-.26-.26-.9a91.83 91.83 0 0 0-22.4-38.8l-.66-.7.2-.92a35.35 35.35 0 0 1 10.5-18.12l.69-.64.92.23A92.33 92.33 0 0 0 88.22 7Z" fill="#002E61"/><path fill-rule="evenodd" clip-rule="evenodd" d="M57.7 30.52a30.52 30.52 0 1 1 8.94 21.55 30.321 30.321 0 0 1-8.94-21.55Z" fill="#002E61"/><path d="M65.66 6.9a33.43 33.43 0 0 0-5.75 7.31 32.428 32.428 0 0 0-3.43 8.56A95.639 95.639 0 0 1 70.17 41 93.3 93.3 0 0 1 79 61.82c1.423.428 2.873.763 4.34 1a32.42 32.42 0 0 0 4.86.37c1.65.003 3.298-.118 4.93-.36a31.483 31.483 0 0 0 4.25-.93 94.148 94.148 0 0 1 22.51-39.09A32.73 32.73 0 0 0 110.83 7a96.867 96.867 0 0 1-22.64 2.72 91.45 91.45 0 0 1-11.76-.77 97.577 97.577 0 0 1-10.8-2l.03-.05Zm-7.42 6.35a34.719 34.719 0 0 1 6.49-8.12l.38-.36.51.13A95.836 95.836 0 0 0 76.7 7a90.63 90.63 0 0 0 11.52.74c3.81 0 7.618-.234 11.4-.7A94.223 94.223 0 0 0 110.87 5l.51-.13.38.36a34.37 34.37 0 0 1 10.14 17.63l.12.5-.36.37A92.76 92.76 0 0 0 107.94 42a91.53 91.53 0 0 0-8.83 21l-.15.5-.5.16a35.2 35.2 0 0 1-10.24 1.44 33.651 33.651 0 0 1-5.15-.4A36.929 36.929 0 0 1 78 63.52l-.5-.16-.14-.51A91.337 91.337 0 0 0 68.49 42a93.404 93.404 0 0 0-13.76-18.27l-.36-.37.12-.5a34 34 0 0 1 3.75-9.61Z" fill="#E3E3E2"/><path d="M58.48 30.52a29.7 29.7 0 1 1 8.7 21 29.63 29.63 0 0 1-8.7-21Zm10.07-19.67a27.8 27.8 0 1 0 19.64-8.14 27.72 27.72 0 0 0-19.64 8.14Z" fill="#E3E3E2"/><path d="M78.09 29a5.27 5.27 0 0 1 2.77.19 4.23 4.23 0 0 1 2.07 1.6l.47 1.1-1.09-.4c-1.63-.88-3.27-.39-4.88.09-2.05.6-4.05 1.2-6.15-.57a4.141 4.141 0 0 1-1-1.22c-.23-.396-.433-.807-.61-1.23L69 27l1.36 1s2.91 2.24 7.71 1h.02Z" fill="#E3E3E2"/><path fill-rule="evenodd" clip-rule="evenodd" d="M87.55 21c-2 0-3.94.39-4.68 1.44a3.79 3.79 0 0 0-1 1.43s-5.22-3.52-6.87 4.21c0 0 3.17-2.27 5-.79A4.93 4.93 0 0 0 82.61 29c2.31.62 2 1.08 2.15 1.56 0 0-.3.72-2.3 2-2 1.28-3.1.67-4.92.08 0 0-.12 2.69 3.49 2.64.433.038.867.038 1.3 0 0 0-4.33 1.79-2.69 6.24a7.4 7.4 0 0 1 3.13-2.2s-4.69 5.33 1.51 10.52c0 0 0-4.76 1.76-6.22 0 0 1 3.79.67 5.87a7.532 7.532 0 0 1-.64 2.76s7.35-.15 5.25-9c0 0 2.94 1 2.33 5 0 0 6.6-3.3 2.25-10.08a3.57 3.57 0 0 1 3.25 3s3.53-5.46-2.3-10.65a3.29 3.29 0 0 1 3.4 1.28 7.696 7.696 0 0 0-4.07-6.17c-.89-.49.51-1.92.15-2.72L87.55 21Z" fill="#CA0538"/><path fill-rule="evenodd" clip-rule="evenodd" d="M92.11 24.22s2.38-3 5.94-2.61c0 0-1 4.45-4.92 5.27l-1-2.66h-.02Z" fill="#CA0538"/><path fill-rule="evenodd" clip-rule="evenodd" d="M93.26 24.65a6.55 6.55 0 0 1 3-1.61 4.159 4.159 0 0 1-2.69 2.3l-.31-.69ZM86.25 29a1.47 1.47 0 0 0-1.46-.2c1.41.05 1.64 2.05 3.17 1.64.274-.08.534-.2.77-.36-1 .41-1.82-.51-2.48-1.08ZM94.26 34.67a4 4 0 0 0-3-3.31c.257.86.418 1.745.48 2.64.03.768-.16 1.528-.55 2.19-.258.4-.6.742-1 1a4 4 0 0 0 .24-2.13A4.41 4.41 0 0 0 89 32.72a9.334 9.334 0 0 1-.19 2 2.71 2.71 0 0 1-1 1.6 3 3 0 0 0-.14-2.22l-.87.47a2.07 2.07 0 0 1 0 1.72 6.502 6.502 0 0 1-1.34 1.53c1.76-.11 3.36-.29 4.18-2.26a5.46 5.46 0 0 1-1.44 3.38c1.57-.31 2.89-.63 3.86-2.15a5.11 5.11 0 0 0 .69-3.43c.91 1.22.8 2.81.8 4.25a7.19 7.19 0 0 0 2.07-4.85 6.28 6.28 0 0 0-2.05-4.47l-.33 1a5.36 5.36 0 0 1 1.1 5.38h-.08Z" fill="#E3E3E2"/><path d="M80.32 30.07a4.15 4.15 0 0 0-2-.08 11 11 0 0 1-7.09-.41c.17.266.388.5.64.69 1.7 1.45 3.47.93 5.27.39a11.14 11.14 0 0 1 3.16-.62l.02.03Z" fill="#CA0538"/><path fill-rule="evenodd" clip-rule="evenodd" d="M89.22 18.38c.61 1 1.61 2.38 2.87 2.38a2.85 2.85 0 0 0 2.66-1.59 1.36 1.36 0 0 1-.82-.05 1.76 1.76 0 0 1-1-2.1 1.65 1.65 0 0 1 2-1.15c.282.088.537.246.74.46a1.73 1.73 0 0 1-.15-1.3 2.11 2.11 0 0 1 2.22-1.46l-3.58 8.83H82.33L78.72 14a2.1 2.1 0 0 1 2.2 1.46 1.29 1.29 0 0 1-.15 1.12c.18-.2.46-.59.74-.69a1.93 1.93 0 0 1 2.13 1.38c.15 1-.18 1.67-1 1.95-.33.067-.67.067-1 0a3.08 3.08 0 0 0 2.82 1.59c1.25 0 2.17-1.35 2.79-2.38a1.61 1.61 0 0 1-1 .31 1.68 1.68 0 0 1 0-3.35c.29-.007.576.073.82.23a1.78 1.78 0 0 1-.51-1.21 1.65 1.65 0 1 1 3.3 0 1.85 1.85 0 0 1-.53 1.23 1.62 1.62 0 0 1 .84-.25 1.68 1.68 0 0 1 0 3.35 2.998 2.998 0 0 1-1-.31l.05-.05Z" fill="#E8B427"/><path d="M85.31 24.6a4.51 4.51 0 0 0-.52 0 .88.88 0 0 1-.9.85.9.9 0 0 1-.89-.69 2.113 2.113 0 0 1-.49-.1A1.51 1.51 0 0 0 83.67 26a1.36 1.36 0 0 0 1.52-1.08c0-.1.08-.2.12-.28v-.04Zm-1.7-2.2a1.7 1.7 0 0 0-.35.36c-.263.255-.495.54-.69.85a2.32 2.32 0 0 0 1.65.06 3.49 3.49 0 0 1 2.27.26c.353.134.668.35.92.63l-.7.63s-.45-.51-.62-.05a2.27 2.27 0 0 1-2.57 1.68 2.63 2.63 0 0 1-2-2.64c-.7-.41-4.19-2.18-5.74 2.84 1.19-.61 3.15-1.29 4.54-.16a4.41 4.41 0 0 0 2.34 1.56c2.33.63 2.4 1.21 2.48 1.8a.443.443 0 0 0 0 .13v.15l-.06.14s-.37.86-2.49 2.19a4.44 4.44 0 0 1-4.56.39c.24.63.93 1.46 2.86 1.43.41.035.82.035 1.23 0l3.17-.34-2.77 1.39s-3.4 1.43-2.65 4.89a6.76 6.76 0 0 1 2.78-1.74l1.47-.36-1 1.15a6.51 6.51 0 0 0 .71 9.15c.12-1.55.51-4.4 1.9-5.54l.58-.48.19.73s1 3.84.68 6a9.546 9.546 0 0 1-.36 2.15c1.72-.33 5.56-1.8 4-8.29l-.21-.87.84.3a4.49 4.49 0 0 1 2.73 4.55c1.51-1.1 4.41-4 1.28-8.9L95 37.7h.9a3.92 3.92 0 0 1 3.31 2.3c.67-1.71 1.4-5.44-2.68-9.07l-.7-.62.91-.21a4.13 4.13 0 0 1 2.78.4A7 7 0 0 0 96 26.05a6 6 0 0 1-2.69 1.32l-.31-.96c2.18-.46 4-3.07 4.38-4.36a6.829 6.829 0 0 0-4.93 2.47l-.75-.6s2.54-3.23 6.37-2.79l.53.06-.12.53a9.07 9.07 0 0 1-1.88 3.61 8.23 8.23 0 0 1 4.1 6.44l.08 1.76-1-1.47A2.52 2.52 0 0 0 98 30.94c5 5.23 1.59 10.47 1.58 10.48l-.6.95-.28-1.08a3.28 3.28 0 0 0-1.8-2.36c3.42 6.57-3 9.77-3 9.78l-.84.43.14-.93a4.09 4.09 0 0 0-1.16-4c1.39 8.34-5.9 8.49-5.93 8.49h-.88l.45-.75a7.099 7.099 0 0 0 .58-2.54 16.16 16.16 0 0 0-.44-4.74c-1 1.76-1 5.16-1 5.17v1l-.82-.63c-4.51-3.77-3.58-7.63-2.55-9.68A7.912 7.912 0 0 0 80 41.84l-.53.63-.29-.78a5 5 0 0 1 1.47-5.93c-3.74-.14-3.6-3.13-3.6-3.14v-.63l.6.19.57.19c1.38.47 2.37.81 3.94-.21a7.4 7.4 0 0 0 2.06-1.66c0-.26-.07-.52-1.77-1a5.54 5.54 0 0 1-2.84-1.87c-1.54-1.17-4.35.84-4.36.85l-1 .7.26-1.2c.93-4.41 3-5.43 4.71-5.4a5.891 5.891 0 0 1 2.43.64c.17-.292.367-.567.59-.82h1.37Z" fill="#E3E3E2"/><path fill-rule="evenodd" clip-rule="evenodd" d="M164.84 74.57h-15.49l-8.11 20.05V74.55h-10.4v26.93h18.23l1.64-4.1h13l1.86 4.1h10.17l-10.9-26.91ZM118.63 89l-11-14.49H94.41v20l-8.29-20H70.84l-6.4 16h-9.55c-.8 3.35-2.61 4.83-5.92 4.83-3.78 0-6.35-2.81-6.35-7 0-5.45 2.16-8.27 6.28-8.27 3.38 0 5.3 1.51 5.89 4.66h10.82v-.41c0-6.5-6.58-10.78-16.59-10.78-10.7 0-15.77 4.17-16.64 13.75a10.24 10.24 0 0 0-5.94-3.12l-4-.36-6-.1c-2.56-.06-4-1-4-2.46 0-1.72 1.49-2.67 4.2-2.67 3.12 0 4.38 1.16 4.38 4h11.39v-.36c0-5.56-5.38-8.63-15.13-8.63-10.83 0-16.13 3-16.13 9 0 5.14 3.89 7.91 11.34 8.11l4.43.11c3.25.1 4.71.89 4.71 2.61 0 1.46-2.05 2.84-4.17 2.84-3.71 0-5.66-1.28-5.66-3.69H0v.26c0 5.84 5.89 9 16.59 9 10.32 0 15.39-2.26 17-7.61 3.31 5.63 7.61 7.68 16 7.68 5.32 0 8.09-.74 11.54-3.25L60 101.48h10.09l1.85-4.2h13.21l1.76 4.15h17.26v-16l12.26 16h12.21V74.57h-10V89h-.01Zm34.87 1.59 3.56-8.91 4 8.86h-7.6l.04.05Zm-78.8 0 3.59-9.19 4.09 9.19H74.7Z" fill="#002E61"/></g><defs><clipPath id="a"><path fill="#fff" d="M0 0h175.75v101.99H0z"/></clipPath></defs></svg>