<svg width="129" height="127" fill="none" xmlns="http://www.w3.org/2000/svg"><g clip-path="url(#a)"><path fill-rule="evenodd" clip-rule="evenodd" d="M64.412 22.297a40.838 40.838 0 0 1 28.984 12.094c7.687 7.744 12.006 18.246 12.006 29.198a40.625 40.625 0 0 1-3.072 15.767 40.39 40.39 0 0 1-8.932 13.313 40.621 40.621 0 0 1-13.27 9.057 40.365 40.365 0 0 1-15.716 3.183A41.277 41.277 0 0 1 35.34 92.787c-7.626-7.73-11.91-18.183-11.916-29.08 0-10.952 4.318-21.454 12.005-29.198a40.838 40.838 0 0 1 28.984-12.094v-.118Zm0 .65a40.49 40.49 0 0 0-28.504 12.02c-7.559 7.632-11.825 17.959-11.87 28.74a40.157 40.157 0 0 0 3.114 15.56 39.92 39.92 0 0 0 8.89 13.107 39.444 39.444 0 0 0 13.04 8.808 39.203 39.203 0 0 0 15.418 2.99 40.14 40.14 0 0 0 28.427-11.855c7.545-7.585 11.8-17.873 11.831-28.61a40.845 40.845 0 0 0-3.022-15.6 40.606 40.606 0 0 0-8.737-13.233 40.269 40.269 0 0 0-13.111-8.839 40.031 40.031 0 0 0-15.476-3.089Z" fill="#C6C5C0"/><path fill-rule="evenodd" clip-rule="evenodd" d="M64.412.413a62.62 62.62 0 0 1 38.062 12.977l6.968-7.02L121.68 18.7l-6.792 7.196a63.463 63.463 0 0 1 12.343 39.529 63.41 63.41 0 0 1-14.639 38.725c-9.065 10.882-21.507 18.368-35.317 21.246a62.276 62.276 0 0 1-40.787-5.383c-12.607-6.365-22.716-16.826-28.692-29.693A63.57 63.57 0 0 1 3.554 49.1c3.229-13.828 10.992-26.156 22.035-34.99A62.398 62.398 0 0 1 64.412.412Zm0 14.747a47.623 47.623 0 0 0-26.559 8.162 48.15 48.15 0 0 0-17.593 21.64A48.552 48.552 0 0 0 17.552 72.8a48.333 48.333 0 0 0 13.089 24.67 47.762 47.762 0 0 0 24.48 13.2 47.554 47.554 0 0 0 27.637-2.711 47.946 47.946 0 0 0 21.494-17.71A48.474 48.474 0 0 0 112.37 63.5c-.023-12.797-5.086-25.063-14.078-34.104-8.99-9.04-21.176-14.118-33.88-14.118v-.118Z" fill="url(#b)"/><path fill-rule="evenodd" clip-rule="evenodd" d="M64.412 15.071a47.917 47.917 0 0 1 18.512 3.661 48.199 48.199 0 0 1 15.701 10.535 48.604 48.604 0 0 1 10.487 15.798 48.883 48.883 0 0 1 3.668 18.642 48.883 48.883 0 0 1-3.668 18.641 48.604 48.604 0 0 1-10.487 15.797 48.201 48.201 0 0 1-15.7 10.536 47.926 47.926 0 0 1-18.513 3.661c-12.79-.024-25.047-5.158-34.082-14.276-9.035-9.119-14.11-21.476-14.11-34.36a48.738 48.738 0 0 1 3.66-18.618 48.453 48.453 0 0 1 10.482-15.771 47.5 47.5 0 0 1 15.597-10.585 47.218 47.218 0 0 1 18.453-3.66Zm0 .65C51.77 15.702 39.64 20.74 30.684 29.73a47.66 47.66 0 0 0-10.29 15.593 47.939 47.939 0 0 0-3.53 18.383c-.017 12.735 4.985 24.956 13.907 33.977 8.987 8.886 21.049 13.909 33.641 14.01 12.624-.072 24.724-5.097 33.729-14.01a48.057 48.057 0 0 0 10.353-15.586 48.36 48.36 0 0 0 3.642-18.39 48.164 48.164 0 0 0-3.595-18.408A47.877 47.877 0 0 0 98.196 29.7 47.465 47.465 0 0 0 82.69 19.308a47.186 47.186 0 0 0-18.279-3.588Z" fill="url(#c)"/><path fill-rule="evenodd" clip-rule="evenodd" d="M64.412 0a62.332 62.332 0 0 1 38.472 13.154l-.234.236C90.129 3.761 74.45-.728 58.773.83 43.097 2.385 28.59 9.87 18.176 21.777 7.762 33.683 2.216 49.123 2.657 64.986c.441 15.861 6.836 30.965 17.895 42.265 11.059 11.301 25.96 17.957 41.698 18.627 15.738.67 31.143-4.695 43.109-15.015 11.966-10.32 19.603-24.826 21.372-40.594 1.768-15.768-2.464-31.625-11.843-44.374l.205-.206A63.28 63.28 0 0 1 127.536 63.5a63.944 63.944 0 0 1-4.829 24.367 63.578 63.578 0 0 1-13.733 20.64 62.309 62.309 0 0 1-20.435 13.761A61.941 61.941 0 0 1 64.412 127c-16.643.004-32.607-6.647-44.386-18.493C8.18 96.564 1.507 80.383 1.464 63.5c.092-16.797 6.75-32.882 18.533-44.768C31.78 6.846 47.737.116 64.412 0Z" fill="url(#d)"/><path fill-rule="evenodd" clip-rule="evenodd" d="M64.412 15.514a47.592 47.592 0 0 1 26.603 8.079 48.121 48.121 0 0 1 17.659 21.61 48.525 48.525 0 0 1 2.758 27.851 48.302 48.302 0 0 1-13.073 24.698 47.739 47.739 0 0 1-24.493 13.215 47.522 47.522 0 0 1-27.654-2.728A47.917 47.917 0 0 1 24.728 90.49a48.445 48.445 0 0 1-8.069-26.783c-.008-12.77 5.018-25.018 13.973-34.055 8.954-9.037 21.105-14.123 33.78-14.138Zm0 6.783a40.777 40.777 0 0 0-22.772 6.96 41.227 41.227 0 0 0-15.097 18.53 41.574 41.574 0 0 0-2.333 23.857 41.387 41.387 0 0 0 11.218 21.142 40.896 40.896 0 0 0 20.988 11.3 40.707 40.707 0 0 0 23.682-2.349 41.06 41.06 0 0 0 18.396-15.208 41.506 41.506 0 0 0 6.908-22.94c0-10.952-4.319-21.454-12.006-29.198a40.838 40.838 0 0 0-28.984-12.094Z" fill="url(#e)"/><path style="mix-blend-mode:multiply" opacity=".67" fill-rule="evenodd" clip-rule="evenodd" d="M7.29 78.807a.238.238 0 0 0 0 .148h.322v-.472a.67.67 0 0 0-.351.147.356.356 0 0 0 .03.177Z" fill="url(#f)"/><path style="mix-blend-mode:multiply" opacity=".67" d="M16.513 77.45h-.293v.236h.293v-.236Z" fill="url(#g)"/><path style="mix-blend-mode:multiply" opacity=".67" d="M16.513 77.746h-.293v.265h.293v-.265Z" fill="url(#h)"/><path style="mix-blend-mode:multiply" opacity=".67" fill-rule="evenodd" clip-rule="evenodd" d="M10.277 78.807a.208.208 0 0 0 0 .148.29.29 0 0 0 .146 0v-.472a.67.67 0 0 0-.351.147.323.323 0 0 0 .205.177Z" fill="url(#i)"/><path style="mix-blend-mode:multiply" opacity=".67" d="M18.328 77.893h-.82v.383h.82v-.383Z" fill="url(#j)"/><path style="mix-blend-mode:multiply" opacity=".67" d="M3.25 76.684h22.427a39.805 39.805 0 0 0 3.601 7.727H5.446a61.517 61.517 0 0 1-2.196-7.727Z" fill="url(#k)"/><path style="mix-blend-mode:multiply" opacity=".67" d="M18.328 77.51h-.82v.353h.82v-.353Z" fill="url(#l)"/><path style="mix-blend-mode:multiply" opacity=".86" fill-rule="evenodd" clip-rule="evenodd" d="M103.382 76.684h22.515a61.577 61.577 0 0 1-2.196 7.727H99.898a41.789 41.789 0 0 0 3.484-7.727Z" fill="url(#m)"/><path fill-rule="evenodd" clip-rule="evenodd" d="M126.892 47.573A56.458 56.458 0 0 1 129 63.5a69.979 69.979 0 0 1-2.108 16.546H2.313v-.207h124.374a60.73 60.73 0 0 0 2.137-16.545 61.629 61.629 0 0 0-1.932-15.72Z" fill="#1D1D1B"/><path fill-rule="evenodd" clip-rule="evenodd" d="M2.108 47.367h124.784a64.457 64.457 0 0 1 1.903 15.927 60.756 60.756 0 0 1-2.108 16.546H2.313A62.005 62.005 0 0 1 0 63.294a65.9 65.9 0 0 1 2.108-15.927Z" fill="url(#n)"/><path fill-rule="evenodd" clip-rule="evenodd" d="m112.136 2.124 13.936 14.01-10.335 10.41.615.856-7.378 5.928-2.313.855L121.856 18.7 109.618 6.371 94.452 21.648l.615-2.123 17.069-17.401Z" fill="url(#o)"/><path fill-rule="evenodd" clip-rule="evenodd" d="M98.228.649a72.841 72.841 0 0 1 28.898 28.845V.649H98.228Z" fill="url(#p)"/><path d="M98.228.649a72.841 72.841 0 0 1 28.898 28.845" stroke="#B2B1A7" stroke-width=".34" stroke-linecap="round"/><path d="M98.228.649a72.09 72.09 0 0 1 28.664 28.845" stroke="#CCCBC3" stroke-width=".24" stroke-linecap="round"/><path d="M98.024.649a71.818 71.818 0 0 1 28.868 29.08" stroke="#E7E6E1" stroke-width=".13" stroke-linecap="round"/><path d="M98.024.649a72.797 72.797 0 0 1 28.663 29.08" stroke="#fff" stroke-width=".03" stroke-linecap="round"/><path fill-rule="evenodd" clip-rule="evenodd" d="M127.126 0c.205 0 .41.206.41.649H97.819c0-.443.204-.649.41-.649h28.897Z" fill="url(#q)"/><path fill-rule="evenodd" clip-rule="evenodd" d="M127.536 29.494c0 .413-.205.62-.41.62l-.234-.414V0h.234c.205 0 .41.206.41.649v28.845Z" fill="url(#r)"/><path fill-rule="evenodd" clip-rule="evenodd" d="M109.618 71.434c-5.622 0-10.218-3.45-10.218-7.727s4.596-7.669 10.218-7.669c5.621 0 10.423 3.392 10.423 7.669 0 4.276-4.685 7.727-10.423 7.727Zm0-13.154c-2.02 0-3.484 2.27-3.484 5.426s1.493 5.22 3.484 5.22c1.991 0 3.484-2.388 3.484-5.22 0-2.83-1.552-5.426-3.484-5.426Zm-64.09 13.154c-5.622 0-10.19-3.45-10.19-7.727s4.656-7.521 10.19-7.521c5.533 0 10.423 3.362 10.423 7.52 0 4.16-4.685 7.728-10.423 7.728Zm0-12.948c-1.991 0-3.484 2.242-3.484 5.22 0 2.98 1.493 5.22 3.484 5.22 1.99 0 3.513-2.388 3.513-5.22 0-2.83-1.61-5.22-3.513-5.22Zm37.535 12.535-6.617-12.358h-3.25v-2.005H87.63v2.005h-3.66l5.124 8.583 4.274-8.7H90.91v-2.007h10.013v2.006h-3.484l-6.47 12.328-7.906.148Zm-26.351 0v-2.419h3.455v-9.91h-3.28v-2.005H70.24v2.006h-3.455v9.91h3.513a4.346 4.346 0 0 0 2.996-1.224 4.41 4.41 0 0 0 1.337-2.965h2.196v6.754l-20.114-.147Zm-37.74 0-6.617-12.358H9.076v-2.005h14.405v2.005h-3.66l5.124 8.583 4.48-8.7H26.76v-2.007h10.013v2.006H33.32l-6.5 12.476h-7.847Z" fill="#fff"/><path d="M109.618 56.038c5.68 0 10.423 3.421 10.423 7.669 0 4.247-4.655 7.638-10.335 7.638-5.68 0-10.16-3.51-10.16-7.639 0-4.129 4.597-7.668 10.072-7.668Zm0 12.948c1.903 0 3.572-2.33 3.572-5.309s-1.669-5.515-3.572-5.515-3.572 2.33-3.572 5.515c0 3.185 1.464 5.309 3.572 5.309Zm-64.09-12.712c5.709 0 10.335 3.392 10.335 7.432 0 4.041-4.626 7.64-10.335 7.64-5.71 0-10.101-3.51-10.101-7.64 0-4.129 4.626-7.432 10.1-7.432Zm0 12.741c1.903 0 3.6-2.33 3.6-5.309 0-2.978-1.697-5.308-3.6-5.308s-3.572 2.33-3.572 5.308c0 2.98 1.464 5.31 3.572 5.31Zm55.248-12.328v1.917h-3.397l-6.616 12.328h-7.7l-6.53-12.328h-3.337v-1.917h14.346v1.917h-3.63l5.035 8.7 4.45-8.7h-2.634v-1.917h10.013Zm-30.889 0v1.917h-3.279v9.998h3.66a4.404 4.404 0 0 0 3.056-1.23 4.468 4.468 0 0 0 1.365-3.017h2.108v6.577H56.712v-2.33h3.367v-9.998h-3.367v-1.917h13.263-.088Zm-33.201 0v1.917h-3.367L26.76 70.932h-7.788l-6.529-12.328H9.076v-1.917h14.347v1.917H19.82l5.066 8.7 4.625-8.7H26.76v-1.917h9.926Zm72.932-.649c-5.68 0-10.306 3.51-10.306 7.816s4.626 7.816 10.306 7.816c5.68 0 10.423-3.657 10.423-7.964 0-4.306-4.626-7.668-10.423-7.668Zm0 12.948c-1.933 0-3.397-2.212-3.397-5.132 0-2.92 1.435-5.338 3.397-5.338 1.961 0 3.396 2.389 3.396 5.338 0 2.95-1.552 5.132-3.396 5.132Zm-64.09-12.948c-5.563 0-10.394 3.54-10.394 7.669s4.597 7.815 10.276 7.815c5.68 0 10.511-3.51 10.511-7.816s-4.596-7.668-10.393-7.668Zm0 12.741c-1.933 0-3.397-2.212-3.397-5.131 0-2.92 1.464-5.132 3.397-5.132 1.932 0 3.425 2.36 3.425 5.132s-1.58 5.131-3.425 5.131Zm55.423-12.328H90.763v2.271h2.43l-4.246 8.229-4.743-8.17h3.455V56.51H73.02v2.271h3.397l6.5 12.24h8.022l6.47-12.24h3.456V56.51l.087-.059Zm-30.683.059H56.536v2.271h3.367v9.645h-3.367v2.683h20.495v-6.93h-2.46a4.304 4.304 0 0 1-1.274 3.025 4.241 4.241 0 0 1-3.03 1.222h-3.483V58.78h3.484V56.51Zm-33.29 0H26.585v2.271h2.693l-4.42 8.17-4.744-8.17h3.455V56.51H8.783v2.271h3.543l6.5 12.24h8.051l6.47-12.24h3.456V56.51h.175Z" fill="#323230"/><path d="M2.342 47.603A66.315 66.315 0 0 0 .234 63.529c0 .443.147 3.156.147 3.628l.38 4.1c0-.354-.175-7.02-.175-7.374a64.645 64.645 0 0 1 2.342-15.72l43.917-.206 19.06-.354H2.342Z" fill="url(#s)"/></g><defs><linearGradient id="c" x1="39.789" y1="55.124" x2="86.765" y2="71.163" gradientUnits="userSpaceOnUse"><stop stop-color="#E4E2DC"/><stop offset="1" stop-color="#fff"/></linearGradient><linearGradient id="f" x1="7.524" y1="79.073" x2="7.524" y2="78.719" gradientUnits="userSpaceOnUse"><stop stop-color="#fff"/><stop offset=".17" stop-color="#FCFBFA"/><stop offset=".43" stop-color="#BCBCB6"/><stop offset=".52" stop-color="#90908A"/><stop offset=".62" stop-color="#696964"/><stop offset=".72" stop-color="#4B4A46"/><stop offset=".82" stop-color="#353530"/><stop offset=".91" stop-color="#282723"/><stop offset="1" stop-color="#24231F"/></linearGradient><linearGradient id="g" x1="17.857" y1="83.668" x2="17.857" y2="83.656" gradientUnits="userSpaceOnUse"><stop stop-color="#fff"/><stop offset=".17" stop-color="#FCFBFA"/><stop offset=".43" stop-color="#BCBCB6"/><stop offset=".52" stop-color="#90908A"/><stop offset=".62" stop-color="#696964"/><stop offset=".72" stop-color="#4B4A46"/><stop offset=".82" stop-color="#353530"/><stop offset=".91" stop-color="#282723"/><stop offset="1" stop-color="#24231F"/></linearGradient><linearGradient id="h" x1="17.857" y1="84.769" x2="17.857" y2="84.753" gradientUnits="userSpaceOnUse"><stop stop-color="#fff"/><stop offset=".17" stop-color="#FCFBFA"/><stop offset=".43" stop-color="#BCBCB6"/><stop offset=".52" stop-color="#90908A"/><stop offset=".62" stop-color="#696964"/><stop offset=".72" stop-color="#4B4A46"/><stop offset=".82" stop-color="#353530"/><stop offset=".91" stop-color="#282723"/><stop offset="1" stop-color="#24231F"/></linearGradient><linearGradient id="i" x1="11.333" y1="91.385" x2="11.333" y2="91.328" gradientUnits="userSpaceOnUse"><stop stop-color="#fff"/><stop offset=".17" stop-color="#FCFBFA"/><stop offset=".43" stop-color="#BCBCB6"/><stop offset=".52" stop-color="#90908A"/><stop offset=".62" stop-color="#696964"/><stop offset=".72" stop-color="#4B4A46"/><stop offset=".82" stop-color="#353530"/><stop offset=".91" stop-color="#282723"/><stop offset="1" stop-color="#24231F"/></linearGradient><linearGradient id="j" x1="22.526" y1="88.073" x2="22.526" y2="88.042" gradientUnits="userSpaceOnUse"><stop stop-color="#fff"/><stop offset=".17" stop-color="#FCFBFA"/><stop offset=".43" stop-color="#BCBCB6"/><stop offset=".52" stop-color="#90908A"/><stop offset=".62" stop-color="#696964"/><stop offset=".72" stop-color="#4B4A46"/><stop offset=".82" stop-color="#353530"/><stop offset=".91" stop-color="#282723"/><stop offset="1" stop-color="#24231F"/></linearGradient><linearGradient id="k" x1="147.187" y1="298.536" x2="147.187" y2="286.636" gradientUnits="userSpaceOnUse"><stop stop-color="#fff"/><stop offset=".17" stop-color="#FCFBFA"/><stop offset=".43" stop-color="#BCBCB6"/><stop offset=".52" stop-color="#90908A"/><stop offset=".62" stop-color="#696964"/><stop offset=".72" stop-color="#4B4A46"/><stop offset=".82" stop-color="#353530"/><stop offset=".91" stop-color="#282723"/><stop offset="1" stop-color="#24231F"/></linearGradient><linearGradient id="l" x1="22.526" y1="86.853" x2="22.526" y2="86.828" gradientUnits="userSpaceOnUse"><stop stop-color="#fff"/><stop offset=".17" stop-color="#FCFBFA"/><stop offset=".43" stop-color="#BCBCB6"/><stop offset=".52" stop-color="#90908A"/><stop offset=".62" stop-color="#696964"/><stop offset=".72" stop-color="#4B4A46"/><stop offset=".82" stop-color="#353530"/><stop offset=".91" stop-color="#282723"/><stop offset="1" stop-color="#24231F"/></linearGradient><linearGradient id="m" x1="-437.41" y1="298.536" x2="-437.41" y2="286.636" gradientUnits="userSpaceOnUse"><stop stop-color="#fff"/><stop offset=".17" stop-color="#FCFBFA"/><stop offset=".43" stop-color="#BCBCB6"/><stop offset=".52" stop-color="#90908A"/><stop offset=".62" stop-color="#696964"/><stop offset=".72" stop-color="#4B4A46"/><stop offset=".82" stop-color="#353530"/><stop offset=".91" stop-color="#282723"/><stop offset="1" stop-color="#24231F"/></linearGradient><linearGradient id="o" x1="124.813" y1="33.682" x2="92.902" y2="1.974" gradientUnits="userSpaceOnUse"><stop offset=".01" stop-color="#20200B"/><stop offset=".65" stop-color="#43423E"/><stop offset=".66" stop-color="#64635F"/><stop offset=".67" stop-color="#A6A5A2"/><stop offset=".68" stop-color="#F2F2EF"/><stop offset=".69" stop-color="#6F6E68"/><stop offset=".71" stop-color="#585752"/><stop offset=".74" stop-color="#42423E"/><stop offset=".77" stop-color="#31312E"/><stop offset=".8" stop-color="#262623"/><stop offset=".85" stop-color="#1F1F1D"/><stop offset="1" stop-color="#1D1D1B"/></linearGradient><linearGradient id="q" x1="97.819" y1=".324" x2="127.536" y2=".324" gradientUnits="userSpaceOnUse"><stop stop-color="#5C5C5B"/><stop offset=".07" stop-color="#51514F"/><stop offset=".25" stop-color="#3D3D3A"/><stop offset=".44" stop-color="#2F2E2B"/><stop offset=".67" stop-color="#272622"/><stop offset="1" stop-color="#24231F"/></linearGradient><linearGradient id="r" x1="127.214" y1="30.143" x2="127.214" y2="0" gradientUnits="userSpaceOnUse"><stop stop-color="#5C5C5B"/><stop offset=".08" stop-color="#565554"/><stop offset=".45" stop-color="#3A3A37"/><stop offset=".77" stop-color="#2A2925"/><stop offset="1" stop-color="#24231F"/></linearGradient><linearGradient id="s" x1="17.245" y1="37.428" x2="36.457" y2="63.218" gradientUnits="userSpaceOnUse"><stop stop-color="#fff"/><stop offset=".11" stop-color="#D8E8F4"/><stop offset=".34" stop-color="#8CBCDD"/><stop offset=".54" stop-color="#5098CC"/><stop offset=".71" stop-color="#257FBF"/><stop offset=".85" stop-color="#0A6FB7"/><stop offset=".93" stop-color="#066BB5"/><stop offset=".95" stop-color="#2878BD"/><stop offset=".97" stop-color="#4081C2"/><stop offset=".99" stop-color="#4F86C6"/><stop offset="1" stop-color="#5488C7"/></linearGradient><radialGradient id="b" cx="0" cy="0" r="1" gradientUnits="userSpaceOnUse" gradientTransform="matrix(130.786 0 0 131.748 19.734 51.054)"><stop stop-color="#fff"/><stop offset=".04" stop-color="#FDFCFC"/><stop offset=".22" stop-color="#FCFBFA"/><stop offset=".23" stop-color="#F9F8F7"/><stop offset=".38" stop-color="#B7B6B5"/><stop offset=".5" stop-color="#888784"/><stop offset=".59" stop-color="#6A6966"/><stop offset=".65" stop-color="#5F5E5B"/><stop offset=".73" stop-color="#555451"/><stop offset=".87" stop-color="#3A3935"/><stop offset="1" stop-color="#1D1C18"/></radialGradient><radialGradient id="d" cx="0" cy="0" r="1" gradientUnits="userSpaceOnUse" gradientTransform="matrix(143.522 0 0 144.578 101.713 104.142)"><stop stop-color="#C6C6C1"/><stop offset="1" stop-color="#87867E"/></radialGradient><radialGradient id="e" cx="0" cy="0" r="1" gradientUnits="userSpaceOnUse" gradientTransform="matrix(100.776 0 0 101.517 87.073 86.446)"><stop stop-color="#fff"/><stop offset=".21" stop-color="#F2F2F2"/><stop offset=".3" stop-color="#E7E7E7"/><stop offset=".38" stop-color="#C2C1C0"/><stop offset=".45" stop-color="#A4A3A2"/><stop offset=".51" stop-color="#8F8E8C"/><stop offset=".58" stop-color="#82817E"/><stop offset=".64" stop-color="#7E7D7A"/><stop offset=".75" stop-color="#565552"/><stop offset=".85" stop-color="#373632"/><stop offset=".94" stop-color="#24231F"/><stop offset="1" stop-color="#1D1C18"/></radialGradient><radialGradient id="n" cx="0" cy="0" r="1" gradientUnits="userSpaceOnUse" gradientTransform="matrix(81.3643 0 0 81.9631 5.826 51.054)"><stop stop-color="#0069B4"/><stop offset=".01" stop-color="#0068B3"/><stop offset=".13" stop-color="#0061A6"/><stop offset=".24" stop-color="#005EA1"/><stop offset=".49" stop-color="#005490"/><stop offset=".84" stop-color="#004273"/><stop offset=".96" stop-color="#004072"/><stop offset="1" stop-color="#003B6E"/></radialGradient><radialGradient id="p" cx="0" cy="0" r="1" gradientUnits="userSpaceOnUse" gradientTransform="matrix(33.9921 0 0 34.2422 122.207 3.864)"><stop stop-color="#55544F"/><stop offset="1" stop-color="#4F4F4A"/></radialGradient><clipPath id="a"><path fill="#fff" d="M0 0h129v127H0z"/></clipPath></defs></svg>