<svg width="131" height="74" fill="none" xmlns="http://www.w3.org/2000/svg"><g clip-path="url(#a)"><path d="M7.2 74a62.472 62.472 0 0 1-.406-7.115c0-15.9 6.185-31.147 17.194-42.39C34.998 13.254 49.93 6.938 65.5 6.938s30.502 6.316 41.512 17.559c11.009 11.242 17.194 26.49 17.194 42.389 0 2.378-.135 4.753-.406 7.115h6.817c.243-2.364.365-4.739.365-7.115-.283-17.546-7.308-34.275-19.559-46.58C99.172 8 82.676 1.104 65.491 1.104 48.307 1.104 31.811 8 19.56 20.305 7.31 32.611.284 49.34 0 66.885 0 69.26.122 71.636.366 74H7.2Z" fill="url(#b)"/><path d="M6.62 73.467a62.9 62.9 0 0 1-.348-6.582 61.58 61.58 0 0 1 4.822-23.905 60.51 60.51 0 0 1 13.682-20.013 59.048 59.048 0 0 1 20.314-12.86 58.108 58.108 0 0 1 23.638-3.615 58.266 58.266 0 0 1 23.112 6.22 59.425 59.425 0 0 1 18.823 15.042 60.878 60.878 0 0 1 11.468 21.414 61.723 61.723 0 0 1 2.245 24.3l.722-.67c.183-1.944.281-3.92.281-5.918 0-16.217-6.309-31.77-17.54-43.239-11.23-11.467-26.461-17.91-42.343-17.91-15.882 0-31.114 6.443-42.344 17.91-11.23 11.468-17.54 27.022-17.54 43.24 0 1.993.094 3.969.277 5.917l.727.67h.004Z" fill="url(#c)"/><path d="m.834 73.467.597-.669h4.462l.727.67H.834Z" fill="url(#d)"/><path d="M130.171 73.467c.205-2.162.312-4.365.312-6.582 0-17.598-6.846-34.475-19.032-46.918C99.265 7.523 82.738.533 65.504.533c-17.233 0-33.76 6.99-45.946 19.434C7.372 32.41.526 49.287.526 66.885c0 2.217.103 4.42.312 6.582l.597-.669a68.257 68.257 0 0 1-.258-5.918c0-17.421 6.777-34.129 18.841-46.448C32.082 8.113 48.444 1.192 65.504 1.192c17.061 0 33.423 6.921 45.487 19.24 12.064 12.319 18.841 29.027 18.841 46.448 0 1.99-.089 3.965-.259 5.918l.598.67Z" fill="url(#e)"/><path d="m124.385 73.467.717-.669h4.467l.597.67h-5.781Z" fill="url(#f)"/><path d="m28.709 60.594 6.803-6.947h9.647V74h-10.28v-8.076l-6.17 6.296-6.165-6.296V74h-10.28V53.647h9.647l6.798 6.947Z" fill="#B7B6B6"/><path d="m28.709 62.296-7.289-7.442h-7.98v17.94h7.922V63.02l7.347 7.502 7.351-7.502v9.774h7.922v-17.94h-7.98l-7.293 7.442Z" fill="url(#g)"/><path d="m35.405 73.463.655-.67h7.922l.655.67h-9.232Z" fill="url(#h)"/><path d="m12.785 54.184.656.67h7.98l.271-.67h-8.907Z" fill="#fff"/><path d="m21.692 54.184-.272.67 7.289 7.442v-.947l-7.017-7.165Z" fill="url(#i)"/><path d="M28.709 61.35v.946l7.293-7.442-.272-.67-7.021 7.166Z" fill="url(#j)"/><path d="m44.637 54.184-.655.67h-7.98l-.272-.67h8.907Z" fill="#fff"/><path d="m44.637 54.184-.655.67v17.94l.655.669V54.184Z" fill="url(#k)"/><path d="m35.405 73.463.655-.67V63.02l-.655 1.612v8.83Z" fill="#000"/><path d="M28.709 71.464v-.942l7.35-7.502-.654 1.612-6.696 6.832Z" fill="url(#l)"/><path d="M28.709 71.464v-.942l-7.347-7.502.656 1.612 6.69 6.832Z" fill="url(#m)"/><path d="m22.018 73.463-.656-.67V63.02l.656 1.612v8.83Z" fill="url(#n)"/><path d="m22.018 73.463-.656-.67h-7.921l-.656.67h9.233Z" fill="url(#o)"/><path d="m12.785 54.184.656.67v17.94l-.656.669V54.184Z" fill="url(#p)"/><path fill-rule="evenodd" clip-rule="evenodd" d="M70.983 53.634 83.96 74H73.355l-1.445-2.276H59.13L57.685 74H47.08l12.981-20.366h10.922ZM68.531 66.33l-3-4.753-3.009 4.753h6.01Z" fill="#B7B6B6"/><path d="M60.699 54.83 49.246 72.799h7.815l1.444-2.276h14.06l1.445 2.276h7.801L70.346 54.831h-9.647Zm4.823 4.553 5.162 8.144H60.36l5.171-8.153-.009.009Z" fill="url(#q)"/><path d="M65.522 59.374v1.229l-3.958 6.245-1.204.67 5.162-8.144Z" fill="url(#r)"/><path d="m60.342 54.162.357.669-11.453 17.967-1.208.67 12.304-19.306Z" fill="url(#s)"/><path d="m70.684 67.518-1.203-.67h-7.917l-1.204.67h10.325Z" fill="url(#t)"/><path d="m70.685 67.518-1.204-.67-3.959-6.245v-1.23l5.163 8.145Z" fill="url(#u)"/><path d="m57.404 73.467-.356-.669h-7.802l-1.208.67h9.366Z" fill="url(#v)"/><path d="m57.404 73.467-.356-.669 1.444-2.276.357.665-1.444 2.28Z" fill="url(#w)"/><path d="m72.196 71.187.356-.665h-14.06l.357.665h13.347Z" fill="url(#x)"/><path d="m72.196 71.187.356-.665 1.445 2.276-.357.67-1.444-2.281Z" fill="url(#y)"/><path d="m83.002 73.467-1.204-.669h-7.801l-.357.67h9.362Z" fill="url(#z)"/><path d="m83.002 73.467-1.204-.669-11.452-17.967.356-.67 12.3 19.306Z" fill="url(#A)"/><path d="m60.342 54.162.357.669h9.647l.356-.67h-10.36Z" fill="#fff"/><path d="M108.274 53.647h10.275V74h-10.275l-12.18-9.209V74H85.81V53.647h10.204l12.26 9.287v-9.287Z" fill="#B7B6B6"/><path d="M109.451 54.854v10.474L95.622 54.854h-8.63v17.94h7.921V62.406l13.748 10.388h8.711v-17.94h-7.921Z" fill="url(#B)"/><path d="m86.336 54.184.656.67v17.94l-.656.669V54.184Z" fill="url(#C)"/><path d="m86.336 54.184.656.67h8.63l.219-.67h-9.505Z" fill="#fff"/><path d="m108.795 63.999.655 1.33-13.828-10.475.219-.67L108.794 64Z" fill="url(#D)"/><path d="m108.795 63.999.655 1.33V54.853l-.655-.67V64Z" fill="url(#E)"/><path d="m118.028 54.184-.656.67h-7.922l-.655-.67h9.233Z" fill="#fff"/><path d="m118.028 54.184-.656.67v17.94l.656.669V54.184Z" fill="url(#F)"/><path d="m108.443 73.463.218-.67h8.711l.655.67h-9.584Z" fill="url(#G)"/><path d="m108.443 73.463.218-.67-13.748-10.387.656 1.324 12.874 9.733Z" fill="url(#H)"/><path d="m95.569 73.463-.656-.67V62.407l.656 1.324v9.733Z" fill="url(#I)"/><path d="m95.569 73.463-.656-.67h-7.921l-.656.67h9.233Z" fill="url(#J)"/></g><defs><linearGradient id="b" x1="65.5" y1="74" x2="65.5" y2="0" gradientUnits="userSpaceOnUse"><stop stop-color="#666"/><stop offset=".5" stop-color="#8C8C8C"/><stop offset="1" stop-color="#E6E6E6"/></linearGradient><linearGradient id="c" x1="125.383" y1="39.604" x2="5.617" y2="39.604" gradientUnits="userSpaceOnUse"><stop/><stop offset=".35"/><stop offset=".6" stop-color="#EDEDED"/><stop offset="1" stop-color="#EDEDED"/></linearGradient><linearGradient id="d" x1="3.727" y1="73.467" x2="3.727" y2="72.798" gradientUnits="userSpaceOnUse"><stop/><stop offset="1" stop-color="#666"/></linearGradient><linearGradient id="e" x1=".522" y1="37" x2="130.478" y2="37" gradientUnits="userSpaceOnUse"><stop/><stop offset=".15"/><stop offset=".5" stop-color="#EDEDED"/><stop offset="1" stop-color="#EDEDED"/></linearGradient><linearGradient id="f" x1="127.278" y1="73.467" x2="127.278" y2="72.798" gradientUnits="userSpaceOnUse"><stop/><stop offset="1" stop-color="gray"/></linearGradient><linearGradient id="g" x1="16.681" y1="76.108" x2="41.244" y2="52.054" gradientUnits="userSpaceOnUse"><stop stop-color="#666"/><stop offset="1" stop-color="#E6E6E6"/></linearGradient><linearGradient id="h" x1="40.019" y1="73.463" x2="40.019" y2="72.794" gradientUnits="userSpaceOnUse"><stop/><stop offset="1" stop-color="#4D4D4D"/></linearGradient><linearGradient id="i" x1="21.42" y1="58.24" x2="28.709" y2="58.24" gradientUnits="userSpaceOnUse"><stop stop-color="#EDEDED"/><stop offset="1" stop-color="#CCC"/></linearGradient><linearGradient id="j" x1="32.449" y1="58.477" x2="31.98" y2="58.014" gradientUnits="userSpaceOnUse"><stop stop-color="#4D4D4D"/><stop offset="1"/></linearGradient><linearGradient id="k" x1="44.307" y1="54.184" x2="44.307" y2="73.463" gradientUnits="userSpaceOnUse"><stop stop-color="#EDEDED"/><stop offset="1" stop-color="#D9D9D9"/></linearGradient><linearGradient id="l" x1="566.514" y1="1314.71" x2="557.888" y2="1307.13" gradientUnits="userSpaceOnUse"><stop/><stop offset="1" stop-color="#4D4D4D"/></linearGradient><linearGradient id="m" x1="430.202" y1="1314.71" x2="438.828" y2="1307.14" gradientUnits="userSpaceOnUse"><stop/><stop offset="1" stop-color="#4D4D4D"/></linearGradient><linearGradient id="n" x1="21.692" y1="63.02" x2="21.692" y2="73.463" gradientUnits="userSpaceOnUse"><stop/><stop offset="1" stop-color="#EDEDED"/></linearGradient><linearGradient id="o" x1="373.215" y1="180.784" x2="373.215" y2="179.8" gradientUnits="userSpaceOnUse"><stop/><stop offset="1" stop-color="#4D4D4D"/></linearGradient><linearGradient id="p" x1="31.58" y1="2757.02" x2="32.543" y2="2757.02" gradientUnits="userSpaceOnUse"><stop/><stop offset="1" stop-color="#4D4D4D"/></linearGradient><linearGradient id="q" x1="65.522" y1="72.798" x2="65.522" y2="54.831" gradientUnits="userSpaceOnUse"><stop stop-color="#BFBFBF"/><stop offset="1" stop-color="#E6E6E6"/></linearGradient><linearGradient id="r" x1="819.109" y1="1194.38" x2="759.33" y2="1194.38" gradientUnits="userSpaceOnUse"><stop/><stop offset="1" stop-color="#EDEDED"/></linearGradient><linearGradient id="s" x1="1586.79" y1="2760.25" x2="1606.17" y2="2768.56" gradientUnits="userSpaceOnUse"><stop/><stop offset="1" stop-color="#4D4D4D"/></linearGradient><linearGradient id="t" x1="1458.3" y1="165.611" x2="1697.41" y2="165.611" gradientUnits="userSpaceOnUse"><stop stop-color="#EDEDED"/><stop offset="1" stop-color="#D9D9D9"/></linearGradient><linearGradient id="u" x1="824.271" y1="1194.38" x2="884.049" y2="1194.38" gradientUnits="userSpaceOnUse"><stop/><stop offset="1" stop-color="#4D4D4D"/></linearGradient><linearGradient id="v" x1="1155.76" y1="180.795" x2="1155.76" y2="179.811" gradientUnits="userSpaceOnUse"><stop/><stop offset="1" stop-color="#4D4D4D"/></linearGradient><linearGradient id="w" x1="290.043" y1="535.136" x2="292.79" y2="536.233" gradientUnits="userSpaceOnUse"><stop stop-color="#4D4D4D"/><stop offset="1"/></linearGradient><linearGradient id="x" x1="2125.06" y1="174.454" x2="2125.06" y2="173.484" gradientUnits="userSpaceOnUse"><stop/><stop offset="1" stop-color="#4D4D4D"/></linearGradient><linearGradient id="y" x1="366.39" y1="537.521" x2="369.137" y2="536.424" gradientUnits="userSpaceOnUse"><stop/><stop offset="1" stop-color="#4D4D4D"/></linearGradient><linearGradient id="z" x1="1718.38" y1="180.795" x2="1718.38" y2="179.811" gradientUnits="userSpaceOnUse"><stop/><stop offset="1" stop-color="#4D4D4D"/></linearGradient><linearGradient id="A" x1="2067.46" y1="2760.63" x2="2426.76" y2="2760.63" gradientUnits="userSpaceOnUse"><stop stop-color="#EDEDED"/><stop offset="1" stop-color="#D9D9D9"/></linearGradient><linearGradient id="B" x1="8085.91" y1="2570.05" x2="6015.47" y2="2570.05" gradientUnits="userSpaceOnUse"><stop stop-color="#666"/><stop offset="1" stop-color="#E6E6E6"/></linearGradient><linearGradient id="C" x1="213.251" y1="2757.02" x2="214.214" y2="2757.02" gradientUnits="userSpaceOnUse"><stop/><stop offset="1" stop-color="#4D4D4D"/></linearGradient><linearGradient id="D" x1="95.622" y1="59.756" x2="109.45" y2="59.756" gradientUnits="userSpaceOnUse"><stop stop-color="#EDEDED"/><stop offset="1" stop-color="#BFBFBF"/></linearGradient><linearGradient id="E" x1="268.726" y1="1517.02" x2="269.689" y2="1517.02" gradientUnits="userSpaceOnUse"><stop/><stop offset="1" stop-color="#4D4D4D"/></linearGradient><linearGradient id="F" x1="289.911" y1="2757.02" x2="290.875" y2="2757.02" gradientUnits="userSpaceOnUse"><stop stop-color="#EDEDED"/><stop offset="1" stop-color="#D9D9D9"/></linearGradient><linearGradient id="G" x1="2543" y1="180.784" x2="2543" y2="179.8" gradientUnits="userSpaceOnUse"><stop/><stop offset="1" stop-color="#4D4D4D"/></linearGradient><linearGradient id="H" x1="3224.69" y1="1719.11" x2="3233.63" y2="1704.07" gradientUnits="userSpaceOnUse"><stop/><stop offset="1" stop-color="#4D4D4D"/></linearGradient><linearGradient id="I" x1="234.922" y1="1578.24" x2="234.922" y2="1846.82" gradientUnits="userSpaceOnUse"><stop/><stop offset="1" stop-color="#EDEDED"/></linearGradient><linearGradient id="J" x1="1970.01" y1="180.784" x2="1970.01" y2="179.8" gradientUnits="userSpaceOnUse"><stop/><stop offset="1" stop-color="#4D4D4D"/></linearGradient><clipPath id="a"><path fill="#fff" d="M0 0h131v74H0z"/></clipPath></defs></svg>