<svg width="176" height="48" fill="none" xmlns="http://www.w3.org/2000/svg"><g clip-path="url(#a)" fill-rule="evenodd" clip-rule="evenodd"><path d="M.188.032h25.335c8.295 0 17.34-.466 22.97 2.141 9.731 4.502 10.848 19.008 1.797 24.608-5.66 3.51-14.558 3.032-23.705 3.032H0V.567C0 .317-.022.063.188.032Zm19.216 22.112c7.338.063 14.58.795 16.52-4.458 1.378-3.725-.46-7.761-3.59-9.095-3.302-1.41-8.276-.038-12.752-.535-.418 4.34-.06 9.45-.178 14.088ZM74.894.032h27.836c5.691 9.922 12.123 20.046 17.419 29.778h-38.07c-.086-1.125 1.317-2.566 2.147-3.922.87-1.41 1.528-3.038 2.514-4.1h10.416c-1.975-4.637-5.525-9.253-8.08-13.91-4.809 7.056-8.979 14.744-13.65 21.935H57.109c-.115-1.07 1.04-2.116 1.796-3.39 5.021-8.43 10.592-18.152 15.99-26.391ZM124.82.032h51.001v8.737h-31.265c-.418 1.428-.061 3.627-.179 5.35h31.093v8.025h-31.077v7.67h-19.755V.566c-.016-.25-.029-.504.182-.535Z" fill="#254F9C"/><path d="M19.582 8.056c4.467.494 9.438-.874 12.762.535 3.13 1.334 4.967 5.386 3.59 9.095-1.95 5.253-9.205 4.521-16.53 4.458.118-4.638-.24-9.748.178-14.088Z" fill="#fff"/><path d="M.188 36.409H176V48H0V36.944c0-.253-.022-.513.188-.535Z" fill="#E52825"/></g><defs><clipPath id="a"><path fill="#fff" d="M0 0h176v48H0z"/></clipPath></defs></svg>